<svg width="88" height="36" viewBox="0 0 88 36" fill="none" xmlns="http://www.w3.org/2000/svg">
<path d="M18.6117 13.439C17.8224 13.439 17.1344 13.583 16.5477 13.871C15.9717 14.1483 15.4917 14.5163 15.1077 14.975C14.7237 15.423 14.4357 15.9297 14.2437 16.495C14.0624 17.0603 13.9717 17.6203 13.9717 18.175C13.9717 18.8043 14.0944 19.423 14.3397 20.031C14.585 20.6283 14.921 21.1617 15.3477 21.631C15.785 22.0897 16.2917 22.463 16.8677 22.751C17.4437 23.0283 18.0677 23.167 18.7397 23.167C18.9317 23.167 19.1557 23.1457 19.4117 23.103C19.6784 23.0603 19.9397 22.9803 20.1957 22.863C20.4517 22.735 20.6864 22.559 20.8997 22.335C21.1237 22.111 21.2944 21.8177 21.4117 21.455H21.5717V23.231C21.4117 23.231 21.241 23.2523 21.0597 23.295C20.889 23.3377 20.697 23.3857 20.4837 23.439C20.2064 23.5137 19.897 23.583 19.5557 23.647C19.225 23.711 18.873 23.743 18.4997 23.743C17.5717 23.743 16.7557 23.583 16.0517 23.263C15.3477 22.943 14.761 22.527 14.2917 22.015C13.8224 21.503 13.4704 20.927 13.2357 20.287C13.001 19.6363 12.8837 18.9803 12.8837 18.319C12.8837 17.6577 13.001 17.0017 13.2357 16.351C13.4704 15.7003 13.8277 15.119 14.3077 14.607C14.7877 14.0843 15.3904 13.663 16.1157 13.343C16.841 13.023 17.6944 12.863 18.6757 12.863C19.0277 12.863 19.3424 12.895 19.6197 12.959C19.9077 13.023 20.1637 13.087 20.3877 13.151C20.5477 13.2043 20.6917 13.247 20.8197 13.279C20.9584 13.3003 21.0917 13.311 21.2197 13.311V15.087H21.0597C20.9957 14.7563 20.8784 14.4843 20.7077 14.271C20.537 14.047 20.3344 13.8763 20.0997 13.759C19.8757 13.6417 19.6304 13.5617 19.3637 13.519C19.1077 13.4657 18.857 13.439 18.6117 13.439ZM29.7004 23.423H29.7804C30.0364 23.423 30.1644 23.3057 30.1644 23.071C30.1644 22.9857 30.1484 22.895 30.1164 22.799L28.6764 18.911H25.8764L24.4844 22.735C24.4524 22.8203 24.4364 22.9003 24.4364 22.975C24.4364 23.1137 24.4738 23.2257 24.5484 23.311C24.6231 23.3857 24.7031 23.423 24.7884 23.423H24.8684V23.583H23.0924V23.423H23.1724C23.3111 23.423 23.4444 23.343 23.5724 23.183C23.7111 23.0123 23.8231 22.815 23.9084 22.591L27.5724 12.831L31.1564 22.495C31.2311 22.7083 31.3324 22.9163 31.4604 23.119C31.5991 23.3217 31.7751 23.423 31.9884 23.423H32.0684V23.583H29.7004V23.423ZM26.0364 18.367H28.5004L27.2684 15.023L26.0364 18.367ZM33.6659 23.423H33.7459C33.8313 23.423 33.9059 23.3963 33.9699 23.343C34.0339 23.279 34.0873 23.2043 34.1299 23.119C34.1833 23.0337 34.2206 22.943 34.2419 22.847C34.2739 22.751 34.2899 22.6603 34.2899 22.575V14.015C34.2899 13.9403 34.2739 13.855 34.2419 13.759C34.2206 13.663 34.1833 13.5723 34.1299 13.487C34.0873 13.4017 34.0339 13.3323 33.9699 13.279C33.9059 13.215 33.8313 13.183 33.7459 13.183H33.6659V13.023H35.9699V13.183H35.8899C35.8046 13.183 35.7299 13.215 35.6659 13.279C35.6019 13.3323 35.5486 13.4017 35.5059 13.487C35.4633 13.5723 35.4259 13.663 35.3939 13.759C35.3726 13.855 35.3619 13.9403 35.3619 14.015V22.991H38.8659C39.0686 22.991 39.2446 22.943 39.3939 22.847C39.5433 22.751 39.6659 22.6337 39.7619 22.495C39.8686 22.3457 39.9433 22.191 39.9859 22.031C40.0393 21.8603 40.0659 21.7057 40.0659 21.567H40.2259V23.583H33.6659V23.423ZM41.7434 23.423H41.8234C41.9088 23.423 41.9834 23.3963 42.0474 23.343C42.1114 23.279 42.1648 23.2043 42.2074 23.119C42.2608 23.0337 42.2981 22.943 42.3194 22.847C42.3514 22.751 42.3674 22.6603 42.3674 22.575V14.015C42.3674 13.9403 42.3514 13.855 42.3194 13.759C42.2981 13.663 42.2608 13.5723 42.2074 13.487C42.1648 13.4017 42.1114 13.3323 42.0474 13.279C41.9834 13.215 41.9088 13.183 41.8234 13.183H41.7434V13.023H44.0474V13.183H43.9674C43.8821 13.183 43.8074 13.215 43.7434 13.279C43.6794 13.3323 43.6261 13.4017 43.5834 13.487C43.5408 13.5723 43.5034 13.663 43.4714 13.759C43.4501 13.855 43.4394 13.9403 43.4394 14.015V22.991H46.9434C47.1461 22.991 47.3221 22.943 47.4714 22.847C47.6208 22.751 47.7434 22.6337 47.8394 22.495C47.9461 22.3457 48.0208 22.191 48.0634 22.031C48.1168 21.8603 48.1434 21.7057 48.1434 21.567H48.3034V23.583H41.7434V23.423ZM63.2252 23.423H63.3052C63.3799 23.423 63.4492 23.391 63.5132 23.327C63.5772 23.263 63.6305 23.1883 63.6732 23.103C63.7265 23.0177 63.7639 22.927 63.7852 22.831C63.8065 22.7243 63.8172 22.6283 63.8172 22.543V14.127L59.6892 23.759L55.7692 14.623V22.543C55.7692 22.6283 55.7799 22.7243 55.8012 22.831C55.8225 22.927 55.8545 23.0177 55.8972 23.103C55.9505 23.1883 56.0092 23.263 56.0732 23.327C56.1372 23.391 56.2119 23.423 56.2972 23.423H56.3772V23.583H54.6332V23.423H54.7132C54.7879 23.423 54.8572 23.391 54.9212 23.327C54.9852 23.263 55.0385 23.1883 55.0812 23.103C55.1239 23.0177 55.1559 22.927 55.1772 22.831C55.1985 22.7243 55.2092 22.6283 55.2092 22.543V14.015C55.2092 13.9403 55.1985 13.855 55.1772 13.759C55.1559 13.663 55.1239 13.5723 55.0812 13.487C55.0385 13.4017 54.9852 13.3323 54.9212 13.279C54.8572 13.215 54.7879 13.183 54.7132 13.183H54.6332V13.023H56.2652L59.9772 21.775L63.6892 13.023H65.4972V13.183H65.4172C65.3319 13.183 65.2572 13.215 65.1932 13.279C65.1292 13.3323 65.0705 13.4017 65.0172 13.487C64.9745 13.5723 64.9425 13.663 64.9212 13.759C64.8999 13.855 64.8892 13.9403 64.8892 14.015V22.543C64.8892 22.6283 64.8999 22.7243 64.9212 22.831C64.9425 22.927 64.9745 23.0177 65.0172 23.103C65.0705 23.1883 65.1292 23.263 65.1932 23.327C65.2572 23.391 65.3319 23.423 65.4172 23.423H65.4972V23.583H63.2252V23.423ZM67.6947 23.423H67.7747C67.86 23.423 67.9347 23.3963 67.9987 23.343C68.0627 23.279 68.116 23.2043 68.1587 23.119C68.212 23.0337 68.2494 22.943 68.2707 22.847C68.3027 22.751 68.3187 22.6603 68.3187 22.575V14.015C68.3187 13.9403 68.3027 13.855 68.2707 13.759C68.2494 13.663 68.212 13.5723 68.1587 13.487C68.116 13.4017 68.0627 13.3323 67.9987 13.279C67.9347 13.215 67.86 13.183 67.7747 13.183H67.6947V13.023H73.8547V14.511H73.6947C73.6734 14.2657 73.5774 14.0523 73.4067 13.871C73.236 13.679 72.9694 13.583 72.6067 13.583H69.3907V17.631H72.0467C72.292 17.631 72.4947 17.5563 72.6547 17.407C72.8254 17.2577 72.9107 17.0817 72.9107 16.879H73.0707V18.879H72.9107C72.9107 18.687 72.8307 18.5217 72.6707 18.383C72.5107 18.2443 72.3027 18.175 72.0467 18.175H69.3907V23.023H72.8947C73.0974 23.023 73.2734 22.975 73.4227 22.879C73.572 22.783 73.6947 22.671 73.7907 22.543C73.8974 22.4043 73.972 22.2603 74.0147 22.111C74.068 21.951 74.0947 21.8177 74.0947 21.711H74.2547V23.583H67.6947V23.423Z" fill="black"/>
<rect x="0.5" y="0.5" width="87" height="35" rx="17.5" stroke="white"/>
</svg>
