<svg width="19" height="12" viewBox="0 0 19 12" fill="none" xmlns="http://www.w3.org/2000/svg">
<path d="M8.48857 8.77567L8.48929 8.77712L9.53746 10.882L10.5941 8.77712L10.5949 8.77567L11.9769 6.00045L9.53532 1.11738C9.37982 1.42779 9.22991 1.72692 9.08311 2.01983C8.43107 3.32084 7.84048 4.49927 7.09458 5.99893L8.48857 8.77567Z" stroke="#0C0B10"/>
<path d="M1.98654 7.77567L1.98655 7.77567L1.98727 7.77712L2.53746 8.88197L3.09212 7.77712L3.09284 7.77567L3.97685 6.00045L2.53527 3.11729C2.48378 3.22004 2.43306 3.32125 2.38289 3.42136C1.9591 4.26696 1.57436 5.03464 1.09459 5.99894L1.98654 7.77567Z" stroke="#0C0B10"/>
<path d="M15.9865 7.77567L15.9865 7.77567L15.9873 7.77712L16.5375 8.88197L17.0921 7.77712L17.0928 7.77567L17.9769 6.00045L16.5353 3.11729C16.4838 3.22004 16.4331 3.32125 16.3829 3.42136C15.9591 4.26696 15.5744 5.03464 15.0946 5.99894L15.9865 7.77567Z" stroke="#0C0B10"/>
</svg>
